<svg xmlns="http://www.w3.org/2000/svg" xmlns:xlink="http://www.w3.org/1999/xlink" preserveAspectRatio="xMidYMid" width="29.625" height="24.5" viewBox="0 0 29.625 24.5">
  <defs>
    <style>
      .cls-1 {
        fill: #057d9b;
        fill-rule: evenodd;
      }
    </style>
  </defs>
  <path d="M29.156,20.566 L28.998,20.566 L28.998,24.016 C28.998,24.277 28.786,24.488 28.525,24.488 L23.550,24.488 C23.288,24.488 23.077,24.277 23.077,24.016 L23.077,21.984 C23.077,21.723 23.288,21.512 23.550,21.512 C23.811,21.512 24.023,21.723 24.023,21.984 L24.023,23.543 L28.052,23.543 L28.052,20.566 C28.052,20.566 21.320,20.566 21.316,20.566 C21.316,20.566 8.314,20.566 8.313,20.566 L1.569,20.566 L1.569,23.543 L5.599,23.543 L5.599,21.984 C5.599,21.723 5.811,21.512 6.072,21.512 C6.333,21.512 6.545,21.723 6.545,21.984 L6.545,24.016 C6.545,24.277 6.333,24.488 6.072,24.488 L1.096,24.488 C0.835,24.488 0.623,24.277 0.623,24.016 L0.623,20.566 L0.466,20.566 C0.204,20.566 -0.007,20.355 -0.007,20.094 L-0.007,13.250 C-0.007,12.813 0.170,12.205 0.404,11.835 L1.627,9.912 L2.085,8.073 L1.096,8.073 C0.835,8.073 0.623,7.863 0.623,7.601 C0.623,7.340 0.835,7.129 1.096,7.129 L2.321,7.129 L3.554,2.177 C3.861,0.948 5.094,-0.015 6.362,-0.015 L23.260,-0.015 C24.528,-0.015 25.761,0.948 26.067,2.177 L27.301,7.129 L28.525,7.129 C28.786,7.129 28.998,7.340 28.998,7.601 C28.998,7.863 28.786,8.073 28.525,8.073 L27.536,8.073 L27.994,9.912 L29.217,11.835 C29.452,12.205 29.629,12.813 29.629,13.250 L29.629,20.094 C29.629,20.355 29.417,20.566 29.156,20.566 ZM20.619,19.622 L19.736,17.414 L9.886,17.414 L9.003,19.622 L20.619,19.622 ZM28.683,13.250 C28.683,12.992 28.557,12.560 28.419,12.342 L27.155,10.354 C27.128,10.311 27.107,10.263 27.095,10.215 L25.149,2.406 C24.950,1.605 24.085,0.930 23.260,0.930 L6.362,0.930 C5.537,0.930 4.671,1.605 4.472,2.406 L2.526,10.215 C2.514,10.263 2.494,10.311 2.467,10.354 L1.203,12.342 C1.065,12.560 0.939,12.992 0.939,13.250 L0.939,19.622 L7.984,19.622 L9.126,16.766 C9.198,16.587 9.372,16.468 9.565,16.468 L20.056,16.468 C20.250,16.468 20.423,16.587 20.495,16.766 L21.637,19.622 L28.683,19.622 L28.683,13.250 ZM25.485,12.147 L26.915,12.147 C27.176,12.147 27.388,12.360 27.388,12.620 C27.388,12.881 27.176,13.092 26.915,13.092 L25.485,13.092 C24.597,13.092 23.874,13.815 23.874,14.702 C23.874,15.589 24.597,16.311 25.485,16.311 L27.264,16.311 C27.525,16.311 27.737,16.523 27.737,16.784 C27.737,17.045 27.525,17.257 27.264,17.257 L25.485,17.257 C24.075,17.257 22.928,16.111 22.928,14.702 C22.928,13.294 24.075,12.147 25.485,12.147 ZM25.605,10.572 L4.017,10.572 C3.756,10.572 3.544,10.362 3.544,10.100 C3.544,9.839 3.756,9.628 4.017,9.628 L25.605,9.628 C25.866,9.628 26.078,9.839 26.078,10.100 C26.078,10.362 25.866,10.572 25.605,10.572 ZM6.693,14.702 C6.693,16.111 5.546,17.257 4.137,17.257 L2.357,17.257 C2.096,17.257 1.884,17.045 1.884,16.784 C1.884,16.523 2.096,16.311 2.357,16.311 L4.137,16.311 C5.025,16.311 5.748,15.589 5.748,14.702 C5.748,13.815 5.025,13.092 4.137,13.092 L2.707,13.092 C2.445,13.092 2.234,12.881 2.234,12.620 C2.234,12.360 2.445,12.147 2.707,12.147 L4.137,12.147 C5.546,12.147 6.693,13.294 6.693,14.702 Z" class="cls-1"/>
</svg>
