<svg xmlns="http://www.w3.org/2000/svg" xmlns:xlink="http://www.w3.org/1999/xlink" preserveAspectRatio="xMidYMid" width="40.6" height="38.625" viewBox="0 0 40.6 38.625" class="svg-logo">
  <path d="M40.504,16.217 C40.352,16.504 39.995,16.692 39.599,16.692 L37.372,16.692 L37.372,37.854 C37.372,38.280 36.933,38.624 36.392,38.624 L24.673,38.624 L15.909,38.624 L4.190,38.624 C3.649,38.624 3.210,38.280 3.210,37.854 L3.210,16.692 L0.983,16.692 C0.587,16.692 0.230,16.504 0.078,16.217 C-0.074,15.930 0.010,15.599 0.290,15.379 L19.598,0.220 C19.981,-0.080 20.601,-0.080 20.984,0.220 L40.292,15.379 C40.572,15.599 40.656,15.930 40.504,16.217 ZM16.889,37.085 L23.693,37.085 L23.693,27.434 L16.889,27.434 L16.889,37.085 ZM5.170,37.085 L14.929,37.085 L14.929,26.665 C14.929,26.240 15.368,25.895 15.909,25.895 L24.673,25.895 C25.214,25.895 25.653,26.240 25.653,26.665 L25.653,37.085 L35.412,37.085 L35.412,16.692 L5.170,16.692 L5.170,37.085 ZM20.291,1.853 L3.350,15.153 L4.190,15.153 L36.392,15.153 L37.232,15.153 L20.291,1.853 ZM32.622,19.593 L30.787,19.593 C30.246,19.593 29.807,19.249 29.807,18.824 C29.807,18.399 30.246,18.055 30.787,18.055 L32.622,18.055 C33.163,18.055 33.602,18.399 33.602,18.824 C33.602,19.249 33.163,19.593 32.622,19.593 ZM27.220,19.593 L7.960,19.593 C7.419,19.593 6.980,19.249 6.980,18.824 C6.980,18.399 7.419,18.055 7.960,18.055 L27.220,18.055 C27.762,18.055 28.201,18.399 28.201,18.824 C28.201,19.249 27.762,19.593 27.220,19.593 ZM18.762,33.275 C18.221,33.275 17.782,32.931 17.782,32.505 L17.782,31.305 C17.782,30.881 18.221,30.535 18.762,30.535 C19.304,30.535 19.743,30.881 19.743,31.305 L19.743,32.505 C19.743,32.931 19.304,33.275 18.762,33.275 Z" class="cls-1"/>
</svg>
