<svg xmlns="http://www.w3.org/2000/svg" xmlns:xlink="http://www.w3.org/1999/xlink" preserveAspectRatio="xMidYMid" width="49" height="49" viewBox="0 0 49 49">
  <defs>
    <style>
      .cls-1 {
        fill: #000;
        opacity: 0.25;
        fill-rule: evenodd;
      }
    </style>
  </defs>
  <path d="M24.500,48.998 C10.969,48.998 -0.000,38.030 -0.000,24.499 C-0.000,10.968 10.969,-0.001 24.500,-0.001 C38.031,-0.001 49.000,10.968 49.000,24.499 C49.000,38.030 38.031,48.998 24.500,48.998 ZM24.500,1.530 C11.835,1.530 1.531,11.834 1.531,24.499 C1.531,37.164 11.835,47.468 24.500,47.468 C37.165,47.468 47.469,37.164 47.469,24.499 C47.469,11.834 37.165,1.530 24.500,1.530 ZM26.908,26.754 C24.824,27.727 25.239,31.896 25.244,31.938 C25.292,32.358 24.990,32.738 24.570,32.785 C24.541,32.789 24.512,32.790 24.483,32.790 C24.098,32.790 23.767,32.502 23.723,32.111 C23.698,31.896 23.156,26.815 26.261,25.366 C29.004,24.087 31.073,21.222 31.073,18.705 C31.073,16.116 30.173,11.774 24.143,11.774 C20.171,11.774 17.893,14.051 17.893,18.023 C17.893,18.447 17.551,18.788 17.128,18.788 C16.704,18.788 16.362,18.447 16.362,18.023 C16.362,13.224 19.343,10.243 24.143,10.243 C29.441,10.243 32.604,13.406 32.604,18.705 C32.604,21.828 30.208,25.214 26.908,26.754 ZM24.483,37.026 C25.329,37.026 26.014,37.712 26.014,38.557 C26.014,39.403 25.329,40.089 24.483,40.089 C23.637,40.089 22.952,39.403 22.952,38.557 C22.952,37.712 23.637,37.026 24.483,37.026 Z" class="cls-1"/>
</svg>
