<svg xmlns="http://www.w3.org/2000/svg" xmlns:xlink="http://www.w3.org/1999/xlink" preserveAspectRatio="xMidYMid" width="42.16" height="26.375" viewBox="0 0 42.16 26.375" class="svg-logo">
  <path d="M41.671,22.161 C41.653,22.515 41.360,22.793 41.005,22.793 L40.783,22.793 L40.783,25.700 C40.783,26.068 40.484,26.366 40.116,26.366 L33.099,26.366 C32.731,26.366 32.432,26.068 32.432,25.700 L32.432,24.790 C32.432,24.423 32.731,24.125 33.099,24.125 C33.467,24.125 33.766,24.423 33.766,24.790 L33.766,25.034 L39.449,25.034 L39.449,22.793 L2.725,22.793 L2.725,25.034 L8.408,25.034 L8.408,24.790 C8.408,24.423 8.707,24.125 9.075,24.125 C9.444,24.125 9.742,24.423 9.742,24.790 L9.742,25.700 C9.742,26.068 9.444,26.366 9.075,26.366 L2.059,26.366 C1.690,26.366 1.392,26.068 1.392,25.700 L1.392,22.793 L1.169,22.793 C0.814,22.793 0.521,22.515 0.503,22.161 L0.019,12.528 C-0.041,11.157 0.440,9.867 1.375,8.892 C2.310,7.917 3.579,7.380 4.950,7.380 C5.010,7.380 5.069,7.388 5.127,7.404 L7.270,7.994 L10.428,1.939 C10.993,0.856 12.395,0.006 13.619,0.006 L28.556,0.006 C29.780,0.006 31.181,0.856 31.747,1.939 L34.904,7.994 L37.047,7.404 C37.105,7.388 37.165,7.380 37.225,7.380 C38.595,7.380 39.864,7.917 40.799,8.892 C41.734,9.867 42.216,11.157 42.155,12.524 L41.671,22.161 ZM39.836,9.812 C39.175,9.123 38.281,8.734 37.312,8.712 L32.253,10.108 C31.898,10.206 31.531,9.997 31.432,9.643 C31.334,9.288 31.543,8.922 31.898,8.824 L33.589,8.358 L30.564,2.554 C30.226,1.907 29.287,1.338 28.556,1.338 L13.619,1.338 C12.887,1.338 11.949,1.907 11.611,2.554 L8.585,8.358 L10.277,8.824 C10.632,8.922 10.840,9.288 10.742,9.643 C10.644,9.997 10.277,10.206 9.922,10.108 L7.433,9.421 C7.432,9.421 7.430,9.420 7.429,9.420 L4.863,8.712 C3.893,8.734 3.000,9.123 2.339,9.812 C1.658,10.524 1.307,11.465 1.352,12.465 L1.804,21.461 L40.371,21.461 L40.823,12.461 C40.867,11.465 40.516,10.524 39.836,9.812 ZM38.824,13.149 L36.360,13.149 C35.142,13.149 34.115,13.982 33.819,15.106 L38.653,15.106 C39.022,15.106 39.320,15.404 39.320,15.771 C39.320,16.140 39.022,16.437 38.653,16.437 L33.066,16.437 C32.698,16.437 32.399,16.140 32.399,15.771 C32.399,13.591 34.176,11.818 36.360,11.818 L38.824,11.818 C39.193,11.818 39.491,12.116 39.491,12.484 C39.491,12.851 39.193,13.149 38.824,13.149 ZM29.408,10.131 L12.767,10.131 C12.399,10.131 12.100,9.834 12.100,9.466 C12.100,9.098 12.399,8.800 12.767,8.800 L29.408,8.800 C29.776,8.800 30.075,9.098 30.075,9.466 C30.075,9.834 29.776,10.131 29.408,10.131 ZM17.389,13.682 C17.020,13.682 16.722,13.384 16.722,13.016 C16.722,12.649 17.020,12.350 17.389,12.350 L24.786,12.350 C25.154,12.350 25.452,12.649 25.452,13.016 C25.452,13.384 25.154,13.682 24.786,13.682 L17.389,13.682 ZM13.690,17.019 L28.484,17.019 C28.852,17.019 29.151,17.318 29.151,17.685 L29.151,19.464 C29.151,19.832 28.852,20.130 28.484,20.130 C28.116,20.130 27.817,19.832 27.817,19.464 L27.817,18.350 L14.357,18.350 L14.357,19.464 C14.357,19.832 14.059,20.130 13.690,20.130 C13.322,20.130 13.024,19.832 13.024,19.464 L13.024,17.685 C13.024,17.318 13.322,17.019 13.690,17.019 ZM9.108,16.437 L3.521,16.437 C3.153,16.437 2.854,16.140 2.854,15.771 C2.854,15.404 3.153,15.106 3.521,15.106 L8.356,15.106 C8.060,13.982 7.033,13.149 5.815,13.149 L3.350,13.149 C2.982,13.149 2.683,12.851 2.683,12.484 C2.683,12.116 2.982,11.818 3.350,11.818 L5.815,11.818 C7.999,11.818 9.775,13.591 9.775,15.771 C9.775,16.140 9.477,16.437 9.108,16.437 ZM39.548,6.048 L37.225,6.048 C36.856,6.048 36.558,5.750 36.558,5.383 C36.558,5.014 36.856,4.716 37.225,4.716 L39.548,4.716 C39.916,4.716 40.215,5.014 40.215,5.383 C40.215,5.750 39.916,6.048 39.548,6.048 ZM4.950,6.048 L2.626,6.048 C2.258,6.048 1.959,5.750 1.959,5.383 C1.959,5.014 2.258,4.716 2.626,4.716 L4.950,4.716 C5.318,4.716 5.617,5.014 5.617,5.383 C5.617,5.750 5.318,6.048 4.950,6.048 Z" class="cls-1"/>
</svg>
