<svg xmlns="http://www.w3.org/2000/svg" xmlns:xlink="http://www.w3.org/1999/xlink" preserveAspectRatio="xMidYMid" width="30.938" height="37.875" viewBox="0 0 30.938 37.875" class="svg-logo">
  <path d="M25.887,29.670 C23.316,29.670 21.192,27.738 20.879,25.250 L13.890,25.250 L13.890,30.932 C13.890,34.762 10.774,37.878 6.945,37.878 C3.116,37.878 -0.000,34.762 -0.000,30.932 C-0.000,27.103 3.116,23.987 6.945,23.987 L12.628,23.987 L12.628,20.120 C11.971,19.956 11.403,19.541 11.046,18.938 L2.660,5.147 C2.179,4.336 2.170,3.370 2.634,2.556 C3.097,1.743 3.933,1.257 4.869,1.257 L6.535,1.257 C6.891,0.514 7.645,-0.006 8.524,-0.006 C9.531,-0.006 11.996,0.769 11.996,2.204 C11.996,3.639 9.531,4.414 8.524,4.414 C7.414,4.414 6.501,3.589 6.345,2.520 L4.869,2.520 C4.393,2.520 3.967,2.768 3.731,3.182 C3.495,3.595 3.500,4.088 3.743,4.497 L12.128,18.288 C12.371,18.697 12.792,18.935 13.259,18.935 C13.726,18.935 14.147,18.697 14.385,18.294 L22.543,4.498 C22.786,4.088 22.791,3.595 22.554,3.182 C22.319,2.768 21.893,2.520 21.417,2.520 L20.172,2.520 C20.018,3.589 19.105,4.414 17.995,4.414 C16.987,4.414 14.522,3.639 14.522,2.204 C14.522,0.769 16.987,-0.006 17.995,-0.006 C18.873,-0.006 19.627,0.514 19.983,1.257 L21.417,1.257 C22.354,1.257 23.189,1.743 23.653,2.556 C24.116,3.369 24.108,4.336 23.630,5.140 L15.473,18.937 C15.115,19.540 14.547,19.956 13.890,20.120 L13.890,23.987 L20.879,23.987 C21.192,21.499 23.316,19.567 25.887,19.567 C28.672,19.567 30.938,21.834 30.938,24.618 C30.938,27.404 28.672,29.670 25.887,29.670 ZM8.524,3.151 C9.303,3.151 10.644,2.527 10.732,2.204 C10.644,1.881 9.303,1.257 8.524,1.257 C8.001,1.257 7.577,1.681 7.577,2.204 C7.577,2.726 8.001,3.151 8.524,3.151 ZM12.628,25.250 L6.945,25.250 C3.812,25.250 1.263,27.799 1.263,30.932 C1.263,34.067 3.812,36.615 6.945,36.615 C10.078,36.615 12.628,34.067 12.628,30.932 L12.628,25.250 ZM17.995,1.257 C17.215,1.257 15.874,1.881 15.786,2.204 C15.874,2.527 17.215,3.151 17.995,3.151 C18.517,3.151 18.942,2.726 18.942,2.204 C18.942,1.681 18.517,1.257 17.995,1.257 ZM25.887,20.830 C23.798,20.830 22.099,22.530 22.099,24.618 C22.099,26.708 23.798,28.407 25.887,28.407 C27.976,28.407 29.675,26.708 29.675,24.618 C29.675,22.530 27.976,20.830 25.887,20.830 ZM25.887,27.144 C24.494,27.144 23.361,26.012 23.361,24.618 C23.361,23.226 24.494,22.093 25.887,22.093 C27.280,22.093 28.413,23.226 28.413,24.618 C28.413,26.012 27.280,27.144 25.887,27.144 ZM25.887,23.355 C25.190,23.355 24.624,23.922 24.624,24.618 C24.624,25.315 25.190,25.881 25.887,25.881 C26.583,25.881 27.150,25.315 27.150,24.618 C27.150,23.922 26.583,23.355 25.887,23.355 Z" class="cls-1"/>
</svg>
