<svg xmlns="http://www.w3.org/2000/svg" xmlns:xlink="http://www.w3.org/1999/xlink" preserveAspectRatio="xMidYMid" width="47" height="47" viewBox="0 0 47 47">
  <defs>
    <style>
      .cls-1 {
        fill: #00718f;
        fill-rule: evenodd;
      }
    </style>
  </defs>
  <path d="M23.500,46.999 C10.521,46.999 -0.000,36.478 -0.000,23.500 C-0.000,10.521 10.521,-0.000 23.500,-0.000 C36.479,-0.000 47.000,10.521 47.000,23.500 C47.000,36.478 36.479,46.999 23.500,46.999 ZM23.500,1.468 C11.352,1.468 1.469,11.351 1.469,23.500 C1.469,35.648 11.352,45.531 23.500,45.531 C35.648,45.531 45.531,35.648 45.531,23.500 C45.531,11.351 35.648,1.468 23.500,1.468 ZM25.810,25.663 C23.811,26.595 24.209,30.595 24.213,30.635 C24.260,31.038 23.970,31.402 23.567,31.448 C23.539,31.451 23.511,31.453 23.483,31.453 C23.115,31.453 22.797,31.177 22.755,30.801 C22.731,30.595 22.211,25.721 25.189,24.332 C27.820,23.104 29.804,20.357 29.804,17.942 C29.804,15.459 28.941,11.294 23.157,11.294 C19.348,11.294 17.163,13.478 17.163,17.288 C17.163,17.694 16.835,18.022 16.429,18.022 C16.023,18.022 15.694,17.694 15.694,17.288 C15.694,12.685 18.554,9.825 23.157,9.825 C28.239,9.825 31.273,12.860 31.273,17.942 C31.273,20.938 28.975,24.186 25.810,25.663 ZM23.484,35.515 C24.295,35.515 24.953,36.173 24.953,36.985 C24.953,37.796 24.295,38.453 23.484,38.453 C22.673,38.453 22.015,37.796 22.015,36.985 C22.015,36.173 22.673,35.515 23.484,35.515 Z" class="cls-1"/>
</svg>
