<svg xmlns="http://www.w3.org/2000/svg" xmlns:xlink="http://www.w3.org/1999/xlink" preserveAspectRatio="xMidYMid" width="41.75" height="38.156" viewBox="0 0 41.75 38.156" class="svg-logo">
  <path d="M29.239,0.008 C26.123,0.008 23.178,1.139 20.877,3.209 C18.576,1.139 15.632,0.008 12.515,0.008 C5.610,0.008 -0.007,5.625 -0.007,12.530 C-0.007,16.895 2.362,22.098 6.664,27.180 C10.621,31.854 15.698,35.835 20.593,38.105 C20.683,38.147 20.780,38.168 20.877,38.168 C20.974,38.168 21.072,38.147 21.162,38.105 C26.056,35.835 31.133,31.854 35.091,27.180 C39.392,22.098 41.762,16.895 41.762,12.530 C41.762,5.625 36.144,0.008 29.239,0.008 ZM12.515,1.361 C15.491,1.361 18.291,2.518 20.400,4.620 C20.664,4.883 21.091,4.883 21.355,4.620 C23.463,2.518 26.263,1.361 29.239,1.361 C35.398,1.361 40.409,6.371 40.409,12.530 C40.409,14.029 40.098,15.643 39.500,17.328 L30.981,17.328 C30.664,17.328 30.389,17.549 30.321,17.858 L29.519,21.467 L27.309,12.077 C27.238,11.773 26.967,11.557 26.655,11.555 C26.654,11.555 26.652,11.555 26.651,11.555 C26.340,11.555 26.069,11.766 25.994,12.067 L24.679,17.328 L16.547,17.328 C16.230,17.328 15.955,17.549 15.886,17.858 L15.085,21.466 L12.875,12.077 C12.804,11.773 12.534,11.557 12.221,11.555 C12.220,11.555 12.218,11.555 12.217,11.555 C11.906,11.555 11.636,11.765 11.560,12.067 L10.245,17.328 L2.254,17.328 C1.656,15.643 1.346,14.029 1.346,12.530 C1.346,6.371 6.356,1.361 12.515,1.361 ZM34.058,26.305 C30.356,30.676 25.450,34.559 20.877,36.744 C16.304,34.559 11.398,30.676 7.697,26.305 C5.520,23.734 3.864,21.148 2.789,18.682 L10.773,18.682 C11.084,18.682 11.354,18.470 11.430,18.169 L12.197,15.101 L14.445,24.655 C14.517,24.961 14.790,25.177 15.103,25.177 C15.105,25.177 15.106,25.177 15.108,25.177 C15.423,25.175 15.695,24.956 15.764,24.647 L17.090,18.682 L25.208,18.682 C25.518,18.682 25.789,18.470 25.864,18.169 L26.631,15.101 L28.879,24.655 C28.951,24.961 29.223,25.177 29.537,25.177 C29.539,25.177 29.540,25.177 29.542,25.177 C29.857,25.175 30.129,24.956 30.198,24.647 L31.524,18.682 L38.966,18.682 C37.891,21.148 36.234,23.734 34.058,26.305 Z" class="cls-1"/>
</svg>
