<svg xmlns="http://www.w3.org/2000/svg" xmlns:xlink="http://www.w3.org/1999/xlink" preserveAspectRatio="xMidYMid" width="40.688" height="33.656" viewBox="0 0 40.688 33.656" class="svg-logo">
  <path d="M40.048,28.269 L39.832,28.269 L39.832,33.007 C39.832,33.366 39.541,33.657 39.182,33.657 L32.348,33.657 C31.989,33.657 31.698,33.366 31.698,33.007 L31.698,30.217 C31.698,29.859 31.989,29.568 32.348,29.568 C32.706,29.568 32.997,29.859 32.997,30.217 L32.997,32.358 L38.533,32.358 L38.533,28.269 C38.533,28.269 29.285,28.269 29.279,28.269 C29.279,28.269 11.420,28.269 11.418,28.269 L2.155,28.269 L2.155,32.358 L7.691,32.358 L7.691,30.217 C7.691,29.859 7.982,29.568 8.340,29.568 C8.699,29.568 8.990,29.859 8.990,30.217 L8.990,33.007 C8.990,33.366 8.699,33.657 8.340,33.657 L1.506,33.657 C1.147,33.657 0.856,33.366 0.856,33.007 L0.856,28.269 L0.639,28.269 C0.281,28.269 -0.010,27.979 -0.010,27.621 L-0.010,18.219 C-0.010,17.619 0.233,16.784 0.555,16.276 L2.235,13.634 L2.864,11.109 L1.506,11.109 C1.147,11.109 0.856,10.819 0.856,10.460 C0.856,10.102 1.147,9.812 1.506,9.812 L3.187,9.812 L4.882,3.010 C5.303,1.321 6.997,-0.001 8.739,-0.001 L31.949,-0.001 C33.691,-0.001 35.385,1.321 35.806,3.010 L37.501,9.812 L39.182,9.812 C39.541,9.812 39.832,10.102 39.832,10.460 C39.832,10.819 39.541,11.109 39.182,11.109 L37.824,11.109 L38.453,13.634 L40.132,16.276 C40.455,16.784 40.698,17.619 40.698,18.219 L40.698,27.621 C40.698,27.979 40.407,28.269 40.048,28.269 ZM28.322,26.971 L27.109,23.939 L13.579,23.939 L12.366,26.971 L28.322,26.971 ZM39.399,18.219 C39.399,17.866 39.226,17.272 39.036,16.972 L37.300,14.241 C37.262,14.182 37.235,14.117 37.218,14.050 L34.545,3.324 C34.271,2.225 33.083,1.297 31.949,1.297 L8.739,1.297 C7.605,1.297 6.417,2.225 6.143,3.324 L3.470,14.050 C3.453,14.117 3.425,14.182 3.388,14.241 L1.652,16.972 C1.462,17.272 1.289,17.866 1.289,18.219 L1.289,26.971 L10.967,26.971 L12.536,23.050 C12.634,22.802 12.873,22.641 13.139,22.641 L27.549,22.641 C27.815,22.641 28.054,22.802 28.152,23.050 L29.721,26.971 L39.399,26.971 L39.399,18.219 ZM35.006,16.706 L36.970,16.706 C37.329,16.706 37.620,16.997 37.620,17.354 C37.620,17.713 37.329,18.003 36.970,18.003 L35.006,18.003 C33.786,18.003 32.793,18.995 32.793,20.214 C32.793,21.433 33.786,22.425 35.006,22.425 L37.450,22.425 C37.809,22.425 38.100,22.715 38.100,23.074 C38.100,23.432 37.809,23.723 37.450,23.723 L35.006,23.723 C33.069,23.723 31.494,22.149 31.494,20.214 C31.494,18.279 33.069,16.706 35.006,16.706 ZM35.170,14.542 L5.517,14.542 C5.159,14.542 4.868,14.252 4.868,13.894 C4.868,13.535 5.159,13.244 5.517,13.244 L35.170,13.244 C35.529,13.244 35.820,13.535 35.820,13.894 C35.820,14.252 35.529,14.542 35.170,14.542 ZM9.194,20.214 C9.194,22.149 7.618,23.723 5.682,23.723 L3.238,23.723 C2.879,23.723 2.588,23.432 2.588,23.074 C2.588,22.715 2.879,22.425 3.238,22.425 L5.682,22.425 C6.902,22.425 7.895,21.433 7.895,20.214 C7.895,18.995 6.902,18.003 5.682,18.003 L3.718,18.003 C3.359,18.003 3.068,17.713 3.068,17.354 C3.068,16.997 3.359,16.706 3.718,16.706 L5.682,16.706 C7.619,16.706 9.194,18.279 9.194,20.214 Z" class="cls-1"/>
</svg>
