<svg xmlns="http://www.w3.org/2000/svg" xmlns:xlink="http://www.w3.org/1999/xlink" preserveAspectRatio="xMidYMid" width="41.12" height="35.813" viewBox="0 0 41.12 35.813" class="svg-logo">
  <path d="M38.300,34.042 C38.300,35.019 37.505,35.815 36.527,35.815 C35.550,35.815 34.755,35.019 34.755,34.042 L6.393,34.042 C6.393,35.019 5.598,35.815 4.621,35.815 C3.643,35.815 2.848,35.019 2.848,34.042 C1.284,34.042 0.012,32.769 0.012,31.205 L0.012,7.091 C0.012,5.527 1.284,4.255 2.848,4.255 L12.775,4.255 L12.775,3.545 C12.775,1.590 14.365,-0.001 16.320,-0.001 L24.828,-0.001 C26.783,-0.001 28.373,1.590 28.373,3.545 L28.373,4.255 L38.300,4.255 C39.864,4.255 41.136,5.527 41.136,7.091 L41.136,31.205 C41.136,32.769 39.864,34.042 38.300,34.042 ZM36.527,34.396 C36.723,34.396 36.882,34.238 36.882,34.042 L36.173,34.042 C36.173,34.238 36.332,34.396 36.527,34.396 ZM4.621,34.396 C4.816,34.396 4.975,34.238 4.975,34.042 L4.266,34.042 C4.266,34.238 4.425,34.396 4.621,34.396 ZM26.955,3.545 C26.955,2.373 26.001,1.417 24.828,1.417 L16.320,1.417 C15.147,1.417 14.193,2.373 14.193,3.545 L14.193,4.255 L26.955,4.255 L26.955,3.545 ZM39.718,7.091 C39.718,6.309 39.082,5.673 38.300,5.673 L34.085,5.673 C34.339,7.977 35.818,9.970 37.998,10.869 C38.360,11.017 38.533,11.432 38.384,11.794 C38.271,12.068 38.006,12.233 37.728,12.233 C37.638,12.233 37.546,12.216 37.458,12.180 C34.744,11.061 32.920,8.555 32.661,5.673 L8.487,5.673 C8.228,8.555 6.404,11.061 3.690,12.180 C3.601,12.216 3.510,12.234 3.420,12.234 C3.141,12.234 2.877,12.068 2.764,11.794 C2.615,11.432 2.788,11.017 3.150,10.869 C5.330,9.970 6.809,7.977 7.063,5.673 L2.848,5.673 C2.066,5.673 1.430,6.309 1.430,7.091 L1.430,31.205 C1.430,31.987 2.066,32.624 2.848,32.624 L7.071,32.624 C6.846,30.283 5.358,28.249 3.150,27.339 C2.788,27.191 2.615,26.776 2.764,26.413 C2.913,26.052 3.328,25.879 3.690,26.028 C6.431,27.158 8.266,29.705 8.495,32.624 L32.652,32.624 C32.882,29.705 34.717,27.158 37.458,26.028 C37.820,25.879 38.235,26.052 38.384,26.413 C38.533,26.776 38.360,27.191 37.998,27.339 C35.790,28.249 34.302,30.283 34.077,32.624 L38.300,32.624 C39.082,32.624 39.718,31.987 39.718,31.205 L39.718,7.091 ZM32.981,25.779 L25.088,28.957 C25.002,28.992 24.912,29.009 24.824,29.009 C24.543,29.009 24.277,28.841 24.166,28.564 L22.047,23.301 C21.977,23.127 21.979,22.931 22.053,22.758 C22.126,22.585 22.266,22.448 22.440,22.379 L26.386,20.789 C26.750,20.642 27.163,20.818 27.309,21.182 C27.455,21.546 27.279,21.959 26.916,22.105 L23.628,23.429 L25.216,27.376 L31.794,24.728 L30.205,20.780 L29.547,21.045 C29.184,21.191 28.771,21.015 28.624,20.652 C28.478,20.289 28.654,19.875 29.017,19.729 L30.333,19.200 C30.696,19.053 31.109,19.229 31.255,19.593 L33.374,24.855 C33.520,25.219 33.344,25.632 32.981,25.779 ZM25.159,17.950 C25.093,18.126 24.960,18.269 24.789,18.347 C24.696,18.390 24.595,18.411 24.494,18.411 C24.410,18.411 24.327,18.397 24.247,18.366 L13.617,14.403 C13.440,14.337 13.298,14.204 13.219,14.033 C13.141,13.862 13.134,13.667 13.200,13.491 L14.686,9.503 C14.752,9.327 14.884,9.184 15.056,9.106 C15.227,9.027 15.422,9.021 15.598,9.086 L22.242,11.563 C22.609,11.700 22.795,12.109 22.658,12.476 C22.521,12.844 22.113,13.030 21.746,12.893 L15.767,10.663 L14.776,13.321 L24.078,16.790 L25.068,14.131 L24.404,13.884 C24.037,13.747 23.850,13.338 23.987,12.971 C24.124,12.604 24.533,12.418 24.899,12.555 L26.228,13.050 C26.404,13.116 26.547,13.249 26.625,13.420 C26.703,13.591 26.710,13.786 26.645,13.962 L25.159,17.950 ZM14.052,19.672 C13.905,20.035 13.492,20.210 13.129,20.063 C12.791,19.927 12.434,19.858 12.065,19.858 C10.502,19.858 9.229,21.130 9.229,22.694 C9.229,24.258 10.502,25.531 12.065,25.531 C13.629,25.531 14.902,24.258 14.902,22.694 C14.902,22.378 14.850,22.068 14.749,21.773 C14.621,21.402 14.818,20.998 15.189,20.871 C15.559,20.743 15.963,20.941 16.090,21.312 C16.242,21.757 16.320,22.221 16.320,22.694 C16.320,25.040 14.411,26.950 12.065,26.950 C9.720,26.950 7.811,25.040 7.811,22.694 C7.811,20.348 9.720,18.439 12.065,18.439 C12.617,18.439 13.154,18.543 13.661,18.748 C14.024,18.896 14.199,19.309 14.052,19.672 Z" class="cls-1"/>
</svg>
